<svg xmlns="http://www.w3.org/2000/svg" viewBox="0 0 64 64" width="64" height="64">
  <defs>
    <linearGradient id="g" x1="0" y1="0" x2="1" y2="1">
      <stop offset="0%" stop-color="#4f46e5"/>
      <stop offset="100%" stop-color="#7c3aed"/>
    </linearGradient>
  </defs>
  <rect x="0" y="0" width="64" height="64" rx="15" ry="15" fill="url(#g)"/>
  <g fill="none" stroke="#ffffff" stroke-width="3.4" stroke-linecap="round" stroke-linejoin="round">
    <path d="M34 16H21a3 3 0 0 0-3 3v26a3 3 0 0 0 3 3h22a3 3 0 0 0 3-3V28z"/>
    <path d="M34 16v12h12"/>
    <path d="m40 32-9 9-3.5 1 1-3.5 9-9a1.8 1.8 0 0 1 2.5 2.5z"/>
  </g>
</svg>
